<svg width="62" height="17" viewBox="0 0 62 17" fill="none" xmlns="http://www.w3.org/2000/svg">
<path d="M7.456 7.2C7.68 7.2 7.86667 7.27467 8.016 7.424C8.16533 7.57333 8.24 7.76 8.24 7.984V16.146C8.24 16.3887 8.156 16.594 7.988 16.762C7.82933 16.9207 7.62867 17 7.386 17C7.25533 17 7.12467 16.9813 6.994 16.944C6.87267 16.8973 6.784 16.8367 6.728 16.762L1.646 10.308V16.216C1.646 16.44 1.56667 16.6267 1.408 16.776C1.25867 16.9253 1.06733 17 0.834 17C0.61 17 0.423333 16.9253 0.274 16.776C0.124667 16.6267 0.05 16.44 0.05 16.216V8.054C0.05 7.81133 0.129333 7.61067 0.288 7.452C0.456 7.284 0.661333 7.2 0.904 7.2C1.044 7.2 1.17933 7.228 1.31 7.284C1.45 7.34 1.55267 7.41467 1.618 7.508L6.644 13.92V7.984C6.644 7.76 6.71867 7.57333 6.868 7.424C7.02667 7.27467 7.22267 7.2 7.456 7.2ZM12.468 13.64C11.8987 13.64 11.376 13.5047 10.9 13.234C10.4333 12.9633 10.06 12.5853 9.78 12.1C9.5 11.6147 9.36 11.0687 9.36 10.462C9.36 9.85533 9.5 9.30933 9.78 8.824C10.06 8.32933 10.4333 7.94667 10.9 7.676C11.376 7.40533 11.8987 7.27 12.468 7.27C13.0653 7.27 13.6113 7.40533 14.106 7.676C14.6007 7.94667 14.9927 8.32467 15.282 8.81C15.5713 9.29533 15.716 9.846 15.716 10.462C15.716 11.0687 15.5713 11.6147 15.282 12.1C14.9927 12.5853 14.6007 12.9633 14.106 13.234C13.6113 13.5047 13.0653 13.64 12.468 13.64ZM12.468 8.81C12.0667 8.81 11.726 8.964 11.446 9.272C11.1753 9.58 11.04 9.97667 11.04 10.462C11.04 10.9473 11.1753 11.344 11.446 11.652C11.726 11.9507 12.0667 12.1 12.468 12.1C12.9067 12.1 13.2753 11.9507 13.574 11.652C13.882 11.344 14.036 10.9473 14.036 10.462C14.036 9.97667 13.882 9.58 13.574 9.272C13.2753 8.964 12.9067 8.81 12.468 8.81ZM14.862 14.424C15.0767 14.424 15.254 14.4987 15.394 14.648C15.534 14.788 15.604 14.9653 15.604 15.18C15.604 15.4133 15.534 15.6047 15.394 15.754C15.254 15.894 15.0767 15.964 14.862 15.964H10.242C10.0273 15.964 9.85 15.894 9.71 15.754C9.57 15.6047 9.5 15.4133 9.5 15.18C9.5 14.9653 9.57 14.788 9.71 14.648C9.85 14.4987 10.0273 14.424 10.242 14.424H14.862ZM30.6138 8.24C31.3658 8.688 31.9498 9.248 32.3658 9.92C32.7978 10.576 33.0138 11.264 33.0138 11.984C33.0138 12.896 32.7578 13.736 32.2458 14.504C31.7498 15.272 31.0698 15.88 30.2058 16.328C29.3578 16.776 28.4218 17 27.3978 17C26.3738 17 25.4298 16.776 24.5658 16.328C23.7178 15.88 23.0378 15.272 22.5258 14.504C22.0298 13.736 21.7818 12.896 21.7818 11.984C21.7818 10.448 22.5578 9.2 24.1098 8.24C23.5498 7.92 23.0858 7.488 22.7178 6.944C22.3658 6.4 22.1898 5.76 22.1898 5.024C22.1898 4.144 22.4218 3.336 22.8858 2.6C23.3498 1.864 23.9738 1.28 24.7578 0.847999C25.5578 0.415999 26.4378 0.199999 27.3978 0.199999C28.3578 0.199999 29.2298 0.415999 30.0138 0.847999C30.8138 1.28 31.4378 1.864 31.8858 2.6C32.3498 3.336 32.5818 4.144 32.5818 5.024C32.5818 5.824 32.3898 6.488 32.0058 7.016C31.6378 7.528 31.1738 7.936 30.6138 8.24ZM27.3978 2.84C26.7258 2.84 26.1658 3.056 25.7178 3.488C25.2858 3.904 25.0698 4.432 25.0698 5.072C25.0698 5.728 25.2858 6.272 25.7178 6.704C26.1658 7.12 26.7258 7.328 27.3978 7.328C28.0538 7.328 28.5978 7.112 29.0298 6.68C29.4778 6.248 29.7018 5.712 29.7018 5.072C29.7018 4.432 29.4778 3.904 29.0298 3.488C28.5978 3.056 28.0538 2.84 27.3978 2.84ZM27.3978 14.36C28.1658 14.36 28.8138 14.128 29.3418 13.664C29.8698 13.184 30.1338 12.608 30.1338 11.936C30.1338 11.248 29.8698 10.672 29.3418 10.208C28.8138 9.728 28.1658 9.488 27.3978 9.488C26.6298 9.488 25.9818 9.728 25.4538 10.208C24.9258 10.672 24.6618 11.248 24.6618 11.936C24.6618 12.608 24.9258 13.184 25.4538 13.664C25.9818 14.128 26.6298 14.36 27.3978 14.36ZM44.7232 8.24C45.4752 8.688 46.0592 9.248 46.4752 9.92C46.9072 10.576 47.1232 11.264 47.1232 11.984C47.1232 12.896 46.8672 13.736 46.3552 14.504C45.8592 15.272 45.1792 15.88 44.3152 16.328C43.4672 16.776 42.5312 17 41.5072 17C40.4832 17 39.5392 16.776 38.6752 16.328C37.8272 15.88 37.1472 15.272 36.6352 14.504C36.1392 13.736 35.8912 12.896 35.8912 11.984C35.8912 10.448 36.6672 9.2 38.2192 8.24C37.6592 7.92 37.1952 7.488 36.8272 6.944C36.4752 6.4 36.2992 5.76 36.2992 5.024C36.2992 4.144 36.5312 3.336 36.9952 2.6C37.4592 1.864 38.0832 1.28 38.8672 0.847999C39.6672 0.415999 40.5472 0.199999 41.5072 0.199999C42.4672 0.199999 43.3392 0.415999 44.1232 0.847999C44.9232 1.28 45.5472 1.864 45.9952 2.6C46.4592 3.336 46.6912 4.144 46.6912 5.024C46.6912 5.824 46.4992 6.488 46.1152 7.016C45.7472 7.528 45.2832 7.936 44.7232 8.24ZM41.5072 2.84C40.8352 2.84 40.2752 3.056 39.8272 3.488C39.3952 3.904 39.1792 4.432 39.1792 5.072C39.1792 5.728 39.3952 6.272 39.8272 6.704C40.2752 7.12 40.8352 7.328 41.5072 7.328C42.1632 7.328 42.7072 7.112 43.1392 6.68C43.5872 6.248 43.8112 5.712 43.8112 5.072C43.8112 4.432 43.5872 3.904 43.1392 3.488C42.7072 3.056 42.1632 2.84 41.5072 2.84ZM41.5072 14.36C42.2752 14.36 42.9232 14.128 43.4512 13.664C43.9792 13.184 44.2432 12.608 44.2432 11.936C44.2432 11.248 43.9792 10.672 43.4512 10.208C42.9232 9.728 42.2752 9.488 41.5072 9.488C40.7392 9.488 40.0912 9.728 39.5632 10.208C39.0352 10.672 38.7712 11.248 38.7712 11.936C38.7712 12.608 39.0352 13.184 39.5632 13.664C40.0912 14.128 40.7392 14.36 41.5072 14.36ZM58.8325 8.24C59.5845 8.688 60.1685 9.248 60.5845 9.92C61.0165 10.576 61.2325 11.264 61.2325 11.984C61.2325 12.896 60.9765 13.736 60.4645 14.504C59.9685 15.272 59.2885 15.88 58.4245 16.328C57.5765 16.776 56.6405 17 55.6165 17C54.5925 17 53.6485 16.776 52.7845 16.328C51.9365 15.88 51.2565 15.272 50.7445 14.504C50.2485 13.736 50.0005 12.896 50.0005 11.984C50.0005 10.448 50.7765 9.2 52.3285 8.24C51.7685 7.92 51.3045 7.488 50.9365 6.944C50.5845 6.4 50.4085 5.76 50.4085 5.024C50.4085 4.144 50.6405 3.336 51.1045 2.6C51.5685 1.864 52.1925 1.28 52.9765 0.847999C53.7765 0.415999 54.6565 0.199999 55.6165 0.199999C56.5765 0.199999 57.4485 0.415999 58.2325 0.847999C59.0325 1.28 59.6565 1.864 60.1045 2.6C60.5685 3.336 60.8005 4.144 60.8005 5.024C60.8005 5.824 60.6085 6.488 60.2245 7.016C59.8565 7.528 59.3925 7.936 58.8325 8.24ZM55.6165 2.84C54.9445 2.84 54.3845 3.056 53.9365 3.488C53.5045 3.904 53.2885 4.432 53.2885 5.072C53.2885 5.728 53.5045 6.272 53.9365 6.704C54.3845 7.12 54.9445 7.328 55.6165 7.328C56.2725 7.328 56.8165 7.112 57.2485 6.68C57.6965 6.248 57.9205 5.712 57.9205 5.072C57.9205 4.432 57.6965 3.904 57.2485 3.488C56.8165 3.056 56.2725 2.84 55.6165 2.84ZM55.6165 14.36C56.3845 14.36 57.0325 14.128 57.5605 13.664C58.0885 13.184 58.3525 12.608 58.3525 11.936C58.3525 11.248 58.0885 10.672 57.5605 10.208C57.0325 9.728 56.3845 9.488 55.6165 9.488C54.8485 9.488 54.2005 9.728 53.6725 10.208C53.1445 10.672 52.8805 11.248 52.8805 11.936C52.8805 12.608 53.1445 13.184 53.6725 13.664C54.2005 14.128 54.8485 14.36 55.6165 14.36Z" fill="#1F2041"/>
</svg>
